<svg xmlns="http://www.w3.org/2000/svg" width="1600" height="960" viewBox="0 0 1600 960">
  <defs>
    <linearGradient id="background" x1="0" y1="0" x2="1" y2="1">
      <stop offset="0" stop-color="#071015"/>
      <stop offset="0.55" stop-color="#0b171c"/>
      <stop offset="1" stop-color="#071014"/>
    </linearGradient>
    <radialGradient id="glow" cx="0.45" cy="0.3" r="0.75">
      <stop offset="0" stop-color="#28d7b6" stop-opacity="0.15"/>
      <stop offset="1" stop-color="#28d7b6" stop-opacity="0"/>
    </radialGradient>
    <filter id="shadow" x="-20%" y="-20%" width="140%" height="150%">
      <feDropShadow dx="0" dy="28" stdDeviation="28" flood-color="#000" flood-opacity="0.58"/>
    </filter>
    <clipPath id="terminalClip">
      <rect x="94" y="132" width="1412" height="720" rx="18"/>
    </clipPath>
    <style>
      .mono { font-family: "SFMono-Regular", Menlo, Monaco, "Noto Sans Mono CJK SC", "PingFang SC", monospace; }
      .ui { font-family: Inter, "SF Pro Display", "PingFang SC", sans-serif; }
      .dim { fill: #71858d; }
      .text { fill: #c9d6da; }
      .bright { fill: #eef8f7; }
      .mint { fill: #42e5c3; }
      .amber { fill: #f4c86a; }
      .blue { fill: #77bdfb; }
    </style>
  </defs>

  <rect width="1600" height="960" fill="url(#background)"/>
  <rect width="1600" height="960" fill="url(#glow)"/>
  <circle cx="144" cy="126" r="230" fill="#2be0bc" opacity="0.035"/>
  <circle cx="1480" cy="820" r="300" fill="#4288ff" opacity="0.035"/>

  <g class="ui">
    <text x="94" y="73" font-size="17" font-weight="700" letter-spacing="3.2" fill="#42e5c3">V2RAYN-CLI</text>
    <text x="1506" y="73" text-anchor="end" font-size="14" letter-spacing="1.8" fill="#63777f">LINUX · MACOS · TUI</text>
  </g>

  <g filter="url(#shadow)">
    <rect x="70" y="105" width="1460" height="774" rx="26" fill="#0c1519" stroke="#284047" stroke-width="1.5"/>
    <rect x="70" y="105" width="1460" height="54" rx="26" fill="#142126"/>
    <rect x="70" y="137" width="1460" height="22" fill="#142126"/>
    <circle cx="106" cy="132" r="7" fill="#ff6b68"/>
    <circle cx="132" cy="132" r="7" fill="#f5c452"/>
    <circle cx="158" cy="132" r="7" fill="#45d082"/>
    <text class="mono dim" x="800" y="138" text-anchor="middle" font-size="14">v2rayN-cli — ui</text>
  </g>

  <g clip-path="url(#terminalClip)" class="mono">
    <rect x="94" y="159" width="1412" height="694" fill="#091115"/>

    <text x="122" y="202" font-size="19" font-weight="700" class="mint">v2rayN-cli TUI</text>
    <text x="337" y="202" font-size="17" class="dim">│</text>
    <text x="366" y="202" font-size="16" class="text">RUN 24871</text>
    <text x="486" y="202" font-size="17" class="dim">│</text>
    <text x="516" y="202" font-size="16" class="bright">Tokyo Premium</text>
    <text x="702" y="202" font-size="17" class="dim">│</text>
    <text x="731" y="202" font-size="16" class="text">Mixed :10808</text>
    <text x="1477" y="202" text-anchor="end" font-size="14" class="dim">中文 / English</text>

    <line x1="116" y1="226" x2="1484" y2="226" stroke="#24373e"/>

    <rect x="116" y="245" width="132" height="37" rx="7" fill="#2dd6b3"/>
    <text x="182" y="270" text-anchor="middle" font-size="15" font-weight="700" fill="#071210">1 节点</text>
    <text x="286" y="270" font-size="15" class="text">2 订阅</text>
    <text x="402" y="270" font-size="15" class="text">3 配置</text>
    <text x="518" y="270" font-size="15" class="text">4 日志</text>
    <text x="1477" y="270" text-anchor="end" font-size="14" class="dim">搜索: premium</text>

    <line x1="116" y1="298" x2="1484" y2="298" stroke="#24373e"/>

    <rect x="116" y="317" width="1368" height="44" rx="8" fill="#101e23" stroke="#21363d"/>
    <text x="137" y="344" font-size="14" font-weight="700" class="mint">[a 添加/导入节点]</text>
    <text x="342" y="344" font-size="14" class="text">[Enter 选择]</text>
    <text x="492" y="344" font-size="14" class="text">[d 删除]</text>
    <text x="603" y="344" font-size="14" class="text">[/ 搜索]</text>
    <text x="716" y="344" font-size="14" class="text">[s 启停代理]</text>
    <text x="1470" y="344" text-anchor="end" font-size="13" class="dim">Shift+R 重启</text>

    <text x="129" y="396" font-size="13" class="dim">ACT</text>
    <text x="193" y="396" font-size="13" class="dim">TYPE</text>
    <text x="351" y="396" font-size="13" class="dim">DELAY</text>
    <text x="468" y="396" font-size="13" class="dim">NAME</text>
    <text x="876" y="396" font-size="13" class="dim">ADDRESS / SUBSCRIPTION</text>

    <rect x="116" y="415" width="1368" height="48" rx="7" fill="#17352f" stroke="#37d6b4" stroke-opacity="0.48"/>
    <circle cx="145" cy="439" r="6" fill="#42e5c3"/>
    <text x="193" y="445" font-size="15" class="bright">VLESS</text>
    <text x="351" y="445" font-size="15" class="mint">42ms</text>
    <text x="468" y="445" font-size="15" font-weight="700" class="bright">Tokyo Premium</text>
    <text x="876" y="445" font-size="15" class="text">edge.example.net:443</text>
    <text x="1264" y="445" font-size="14" class="dim">[main-sub]</text>

    <g font-size="15">
      <text x="145" y="497" class="dim">○</text><text x="193" y="497" class="text">Trojan</text><text x="351" y="497" class="amber">76ms</text><text x="468" y="497" class="text">Singapore Relay</text><text x="876" y="497" class="text">sg.example.net:443</text><text x="1264" y="497" class="dim">[main-sub]</text>
      <text x="145" y="546" class="dim">○</text><text x="193" y="546" class="text">Hysteria2</text><text x="351" y="546" class="amber">91ms</text><text x="468" y="546" class="text">Los Angeles 01</text><text x="876" y="546" class="text">us-west.example.net:8443</text><text x="1264" y="546" class="dim">[backup]</text>
      <text x="145" y="595" class="dim">○</text><text x="193" y="595" class="text">VMess</text><text x="351" y="595" class="text">128ms</text><text x="468" y="595" class="text">Frankfurt IPv6</text><text x="876" y="595" class="text">de.example.net:443</text><text x="1264" y="595" class="dim">[main-sub]</text>
      <text x="145" y="644" class="dim">○</text><text x="193" y="644" class="text">AnyTLS</text><text x="351" y="644" class="text">156ms</text><text x="468" y="644" class="text">London Auto</text><text x="876" y="644" class="text">uk.example.net:443</text><text x="1264" y="644" class="dim">[community]</text>
      <text x="145" y="693" class="dim">○</text><text x="193" y="693" class="text">TUIC</text><text x="351" y="693" class="text">188ms</text><text x="468" y="693" class="text">Sydney Edge</text><text x="876" y="693" class="text">au.example.net:443</text><text x="1264" y="693" class="dim">[backup]</text>
    </g>

    <line x1="116" y1="733" x2="1484" y2="733" stroke="#24373e"/>
    <text x="127" y="765" font-size="14" class="amber">代理已启动: Tokyo Premium</text>
    <text x="1478" y="765" text-anchor="end" font-size="13" class="dim">127.0.0.1:10808 · SOCKS5 / HTTP</text>
    <text x="127" y="812" font-size="13" class="dim">Tab 页面   ↑↓ 选择   Enter 操作   a 添加   / 搜索   s 启停   R 重启   l English   q 退出</text>
  </g>

  <g class="ui">
    <text x="94" y="925" font-size="15" fill="#71858d">Subscription · Single node · Runtime control · Live logs · 中文 / English</text>
    <text x="1506" y="925" text-anchor="end" font-size="15" font-weight="700" fill="#42e5c3">OPEN SOURCE · GPL-3.0</text>
  </g>
</svg>
